<svg xmlns="http://www.w3.org/2000/svg" width="95" height="25" viewBox="0 0 95 25">
    <g fill="#858E98" fill-rule="evenodd">
        <path d="M80.918 18.772l-4.963-3.408 6.005.072L83.97 9l2.158 6.486 5.903.07-4.738 3.148 2.12 5.9-.325-.223.104.315.018.053-5.24-3.726L78.973 25l1.946-6.228zM61.918 18.772l-4.963-3.408 6.005.072L64.97 9l2.158 6.486 5.903.07-4.738 3.148 2.12 5.9-.325-.223.104.315.018.053-5.24-3.726L59.973 25l1.946-6.228zM42.918 18.772l-4.963-3.408 6.005.072L45.97 9l2.158 6.486 5.903.07-4.738 3.148 2.12 5.9-.325-.223.104.315.018.053-5.24-3.726L40.973 25l1.946-6.228zM23.918 18.772l-4.963-3.408 6.005.072L26.97 9l2.158 6.486 5.903.07-4.738 3.148 2.12 5.9-.325-.223.104.315.018.053-5.24-3.726L21.973 25l1.946-6.228zM4.918 18.772l-4.963-3.408 6.005.072L7.97 9l2.158 6.486 5.903.07-4.738 3.148 2.12 5.9-.325-.223.104.315.018.053-5.24-3.726L2.973 25l1.946-6.228z"/>
        <rect width="2" height="6" x="83" rx="1"/>
        <rect width="2" height="6" x="76.348" y="3.933" rx="1" transform="rotate(-60 77.348 6.933)"/>
        <rect width="2" height="6" x="90.348" y="3.933" rx="1" transform="rotate(-120 91.348 6.933)"/>
    </g>
</svg>
